<?xml version="1.0" encoding="UTF-8"?>
<svg id="Layer_1" xmlns="http://www.w3.org/2000/svg" version="1.1" viewBox="0 0 2500 2500">
  <!-- Generator: Adobe Illustrator 29.8.2, SVG Export Plug-In . SVG Version: 2.1.1 Build 3)  -->
  <defs>
    <style>
      .st0, .st1 {
        fill: #fff;
      }

      .st2, .st1 {
        display: none;
      }

      .st1 {
        fill-opacity: 0;
      }

      .st1, .st3 {
        fill-rule: evenodd;
      }

      .st3 {
        fill: #cc2229;
      }
    </style>
  </defs>
  <g class="st2">
    <path class="st1" d="M0,0v2500h2500V0H0ZM51.7,1398.87c6.45,0,6.43,10,0,10s-6.43-10,0-10ZM300.89,1390.49c-20.74,1.06-41.19,6.65-60.48,14.15-25.29,9.83-50.62,23.9-71.49,42.33,1.34,20.9,1.08,41.93-1.26,62.7-3.04,27.02-9.19,55.83-26.64,77.49-2.16,2.67-6.24,1.39-7.85-1.01-13.36-19.87-21.08-43.36-18.06-67.43,3.76-29.99,21.47-55.38,43.55-75.61-1.43-21.14-4.38-42.37-10.02-62.78-15.78,8.61-27.6,23.16-40.51,35.39-15.92,15.08-33.97,26.67-56.42,27.88-6.44.34-6.4-9.66,0-10,43.69-2.34,60.65-49.05,97.56-64.68,2.98-1.26,6.31-.4,7.35,2.99,4.31,14.13,7.08,28.72,9.1,43.34.91,6.58,1.67,13.18,2.28,19.81,5.67-4.61,11.52-8.92,17.42-12.89,33.67-22.68,74.59-39.58,115.48-41.68,6.44-.33,6.4,9.67,0,10Z"/>
    <path class="st1" d="M143.57,1474.92c-10.44,14.75-18.06,31.88-19.04,50.12-.95,17.8,4.41,34.62,13.29,49.73,6.44-9.73,10.6-20.97,13.67-32.13,7.68-27.99,9.03-57.67,7.86-86.56-5.75,5.89-11.06,12.17-15.78,18.84Z"/>
  </g>
  <polygon class="st0" points="2077.61 1317.97 2077.61 1638.12 1682.09 1890.8 1317.34 1699.65 1319.52 2270.93 1028.11 2270.91 1029.86 1255.68 1670.82 1568.5 2077.61 1317.97"/>
  <path class="st3" d="M423.67,2270.93l-2.31-1742.47s628.77-325.02,1655.11-353.45c4.05,4.06,1.14,1142.97,1.14,1142.97l-406.8,250.52-640.95-312.82-1.75,1015.23H423.67Z"/>
  <path class="st3" d="M1317.34,1699.65l2.18,571.28h753.7l4.4-632.81-395.53,252.68-364.75-191.15h0Z"/>
</svg>